<svg xmlns="http://www.w3.org/2000/svg" width="38" height="38" viewBox="0 0 38 38">
    <defs>
        <style>
            .cls-1{fill:#fff;stroke:#336fc5}.cls-2{fill:#336fc5}.cls-3{stroke:none}.cls-4{fill:none}
        </style>
    </defs>
    <g id="Group_7921" data-name="Group 7921" transform="translate(-1465 -500)">
        <g id="Ellipse_179" class="cls-1" data-name="Ellipse 179" transform="translate(1465 500)">
            <circle cx="19" cy="19" r="19" class="cls-3"/>
            <circle cx="19" cy="19" r="18.5" class="cls-4"/>
        </g>
        <path id="Path_2572" d="M615.339 74.928c-1.172-.533-3.941-1.385-5.538-1.917-.107 0-.213 0-.213-.639a3.02 3.02 0 0 1 .426-1.385 8.26 8.26 0 0 0 .532-1.917 4.582 4.582 0 0 0 .852-2.024 2.859 2.859 0 0 0 0-1.7v-.107a12.033 12.033 0 0 1 .213-2.343 3.98 3.98 0 0 0-.959-3.089 4.4 4.4 0 0 0-3.515-1.7h-1.065a4.4 4.4 0 0 0-3.515 1.7 4.6 4.6 0 0 0-.959 3.089 12.032 12.032 0 0 1 .213 2.343v.107a2.859 2.859 0 0 0 0 1.7 4.026 4.026 0 0 0 .852 2.024 8.26 8.26 0 0 0 .533 1.917 4.174 4.174 0 0 1 .213 1.385c0 .639 0 .639-.106.639-1.7.533-4.473 1.491-5.538 1.917a1.546 1.546 0 0 0-1.065 1.6v2.663c0 .426.213.959 1.065.959h17.893a1.046 1.046 0 0 0 1.065-.959v-2.665a2.226 2.226 0 0 0-1.384-1.598zm.213 4.154h-17.787v-2.556c0-.32.106-.426.426-.639.959-.426 3.728-1.385 5.432-1.917a1.435 1.435 0 0 0 .852-1.6 4.787 4.787 0 0 0-.32-1.917 3.529 3.529 0 0 1-.426-1.6v-.32l-.213-.213a3.21 3.21 0 0 1-.639-1.491c-.107-.746-.107-.959 0-1.065 0-.107.106-.107.106-.213a8.726 8.726 0 0 0-.213-2.769 2.854 2.854 0 0 1 .746-2.237 3.749 3.749 0 0 1 2.769-1.278h.959a4 4 0 0 1 2.769 1.278 4.108 4.108 0 0 1 .746 2.237 13.61 13.61 0 0 0-.213 2.769c0 .106 0 .106.106.213.106.106.106.32 0 1.065a3.213 3.213 0 0 1-.639 1.491l-.213.213v.32a16.451 16.451 0 0 1-.426 1.6 5.108 5.108 0 0 0-.533 1.811 1.52 1.52 0 0 0 .959 1.7c1.6.533 4.367 1.385 5.432 1.917a.858.858 0 0 1 .533.639z" class="cls-2" data-name="Path 2572" transform="translate(877.632 449.9)"/>
    </g>
</svg>
