<svg xmlns="http://www.w3.org/2000/svg" width="38" height="38" viewBox="0 0 38 38">
    <defs>
        <style>
            .cls-1{fill:#fff;stroke:#336fc5}.cls-2{fill:#336fc5}.cls-3{stroke:none}.cls-4{fill:none}
        </style>
    </defs>
    <g id="Group_7926" data-name="Group 7926" transform="translate(-1389 -824)">
        <g id="Group_7842" data-name="Group 7842" transform="translate(488 95)">
            <g id="Ellipse_49" class="cls-1" data-name="Ellipse 49" transform="translate(901 729)">
                <circle cx="19" cy="19" r="19" class="cls-3"/>
                <circle cx="19" cy="19" r="18.5" class="cls-4"/>
            </g>
            <g id="Group_186" data-name="Group 186" transform="translate(910 738)">
                <path id="Path_580" d="M1973.938 108a9.023 9.023 0 0 0-9.038 9.038 8.858 8.858 0 0 0 2.26 5.971l-2.1 2.582.646.484 2.017-2.5a9.169 9.169 0 0 0 12.588 0l2.017 2.5.646-.484-2.1-2.582a8.985 8.985 0 0 0 2.179-5.891 9.161 9.161 0 0 0-9.115-9.118zm0 17.349a8.231 8.231 0 1 1 8.231-8.231 8.266 8.266 0 0 1-8.231 8.231z" class="cls-2" data-name="Path 580" transform="translate(-1963.689 -105.579)"/>
                <path id="Path_581" d="M1969.936 105h-2.421a4.133 4.133 0 0 0-4.115 4.115v2.5h1.21l5.406-5.407V105zm-.807.807l-4.922 4.922v-1.695a3.272 3.272 0 0 1 3.309-3.308l1.614.081z" class="cls-2" data-name="Path 581" transform="translate(-1963.4 -105)"/>
                <path id="Path_582" d="M1983.221 105h-2.421v1.21l5.406 5.407h1.211v-2.5a4.257 4.257 0 0 0-4.196-4.117zm3.309 5.729l-4.922-4.922h1.614a3.272 3.272 0 0 1 3.309 3.308z" class="cls-2" data-name="Path 582" transform="translate(-1966.759 -105)"/>
                <path id="Path_583" d="M1974.519 117.717H1970v.807h5.326V111.1h-.807z" class="cls-2" data-name="Path 583" transform="translate(-1964.674 -106.178)"/>
            </g>
        </g>
    </g>
</svg>
