<svg xmlns="http://www.w3.org/2000/svg" width="38" height="38" viewBox="0 0 38 38">
    <defs>
        <style>
            .cls-1{fill:#fff;stroke:#336fc5}.cls-2{fill:#336fc5}.cls-3{stroke:none}.cls-4{fill:none}
        </style>
    </defs>
    <g id="Group_7922" data-name="Group 7922" transform="translate(-1389 -565)">
        <g id="Group_7834" data-name="Group 7834" transform="translate(-78)">
            <g id="Ellipse_180" class="cls-1" data-name="Ellipse 180" transform="translate(1467 565)">
                <circle cx="19" cy="19" r="19" class="cls-3"/>
                <circle cx="19" cy="19" r="18.5" class="cls-4"/>
            </g>
            <g id="Group_7832" data-name="Group 7832" transform="translate(231.369 -514.929)">
                <path id="Rectangle_1015" d="M0 0h9.1v1.319H0z" class="cls-2" data-name="Rectangle 1015" transform="translate(1259.063 1090.929)"/>
                <path id="Rectangle_1016" d="M0 0h9.1v1.319H0z" class="cls-2" data-name="Rectangle 1016" transform="translate(1259.063 1098.842)"/>
                <path id="Rectangle_1017" d="M0 0h6.462v1.319H0z" class="cls-2" data-name="Rectangle 1017" transform="translate(1259.063 1094.886)"/>
                <path id="Path_2259" d="M715.762 78.216c-.923-.4-3.165-1.187-4.484-1.583-.132 0-.132 0-.132-.528a3.852 3.852 0 0 1 .264-1.187 5.565 5.565 0 0 0 .4-1.583 2.534 2.534 0 0 0 .659-1.583c.132-.791.132-1.055 0-1.319V70.3a14 14 0 0 1 .132-1.978 3.071 3.071 0 0 0-.791-2.506 3.539 3.539 0 0 0-2.9-1.319h-.923a4.26 4.26 0 0 0-2.9 1.319 4.5 4.5 0 0 0-.791 2.506 13.04 13.04 0 0 1 .132 1.978v.132c-.132.264-.132.528 0 1.319a2.96 2.96 0 0 0 .659 1.583c.132.528.264 1.187.4 1.583a2.929 2.929 0 0 1 .132 1.187c0 .528 0 .528-.132.528a34.064 34.064 0 0 0-4.484 1.583 1.253 1.253 0 0 0-.791 1.319v.528h1.319v-.528a39.416 39.416 0 0 1 4.352-1.583 1.549 1.549 0 0 0 1.055-1.714 5.854 5.854 0 0 0-.264-1.714 12.431 12.431 0 0 1-.4-1.187v-.4l-.274-.259a2.039 2.039 0 0 1-.4-1.055.914.914 0 0 1 0-.659c0-.132 0-.132.132-.264a7.2 7.2 0 0 0-.132-2.374 2.122 2.122 0 0 1 .528-1.451 2.765 2.765 0 0 1 1.846-.923h.791a2.441 2.441 0 0 1 2.374 2.374 7.206 7.206 0 0 0-.132 2.374v.791a2.039 2.039 0 0 1-.4 1.055l-.264.264v.4a3.152 3.152 0 0 1-.4 1.187 3.3 3.3 0 0 0-.4 1.714c0 .528 0 1.451 1.055 1.714 1.319.4 3.429 1.187 4.352 1.451.132 0 .132.132.264.132v.528h1.319V79.4c.284-.261-.111-.789-.771-1.184z" class="cls-2" data-name="Path 2259" transform="translate(541.586 1026.429)"/>
            </g>
        </g>
    </g>
</svg>
