<svg xmlns="http://www.w3.org/2000/svg" width="22" height="22" viewBox="0 0 22 22">
    <defs>
        <style>
            .cls-1{fill:#707070}.cls-2{fill:#fff}
        </style>
    </defs>
    <g id="Group_7965" data-name="Group 7965" transform="translate(-57 -192)">
        <g id="Group_7951" data-name="Group 7951" transform="translate(-1829 -42)">
            <circle id="Ellipse_169" cx="11" cy="11" r="11" class="cls-1" data-name="Ellipse 169" transform="translate(1886 234)"/>
        </g>
        <path id="Shape_183" d="M117.053 1717.771a5.02 5.02 0 0 0 1.347-3.458 4.418 4.418 0 1 0-8.8 0 5.018 5.018 0 0 0 1.36 3.471 2.781 2.781 0 0 0-2.46 2.442v2.916a2.574 2.574 0 0 0 2.475 2.584h6.05a2.574 2.574 0 0 0 2.475-2.584v-2.916a2.7 2.7 0 0 0-2.447-2.455zm-6.9-3.458a3.87 3.87 0 1 1 3.85 4.262 4.077 4.077 0 0 1-3.853-4.262zm8.8 8.828a2.024 2.024 0 0 1-1.925 2.034h-6.05a2.024 2.024 0 0 1-1.925-2.034v-2.916a2.3 2.3 0 0 1 2.3-1.925.268.268 0 0 0 .136-.041 4.071 4.071 0 0 0 5.068-.038.274.274 0 0 0 .193.079 2.2 2.2 0 0 1 2.2 1.925z" class="cls-2" data-name="Shape 183" transform="translate(-45.5 -1514.5)"/>
    </g>
</svg>
