<svg xmlns="http://www.w3.org/2000/svg" width="22" height="22" viewBox="0 0 22 22">
    <defs>
        <style>
            .cls-1{fill:#707070}.cls-2{fill:#fff}
        </style>
    </defs>
    <g id="Group_7966" data-name="Group 7966" transform="translate(-57 -239)">
        <g id="Group_7949" data-name="Group 7949" transform="translate(-1829 5)">
            <circle id="Ellipse_169" cx="11" cy="11" r="11" class="cls-1" data-name="Ellipse 169" transform="translate(1886 234)"/>
        </g>
        <g id="Group_7950" data-name="Group 7950" transform="translate(-12490.033 -1951.112)">
            <path id="Shape_275" d="M.893 10.935a.779.779 0 0 1-.822-.768V2.243c0-.029.006-.062.009-.09v-.02A2.137 2.137 0 0 1 .277.4 1.435 1.435 0 0 1 1.438 0H12.6v1.367h.773a.871.871 0 0 1 .822.876v1.63h.456v4.556H14.2v1.738a.779.779 0 0 1-.822.768zM.527 2.243v7.924a.324.324 0 0 0 .366.312h12.48a.324.324 0 0 0 .366-.312V8.429H9.9a2.278 2.278 0 1 1 0-4.556h3.84v-1.63a.417.417 0 0 0-.366-.42H.893a.417.417 0 0 0-.366.42zm7.546 3.908A1.825 1.825 0 0 0 9.9 7.973h4.3V4.328H9.9a1.825 1.825 0 0 0-1.827 1.823zM.626.693a1.161 1.161 0 0 0-.166.814.826.826 0 0 1 .433-.14h11.252V.456H1.438a1.035 1.035 0 0 0-.812.237zM9.184 6.2a.911.911 0 1 1 .911.911.912.912 0 0 1-.911-.911zm.456 0a.456.456 0 1 0 .456-.456.456.456 0 0 0-.457.456z" class="cls-2" data-name="Shape 275" transform="translate(12550.708 2195.645)"/>
        </g>
    </g>
</svg>
