<svg xmlns="http://www.w3.org/2000/svg" width="22" height="22" viewBox="0 0 22 22">
    <defs>
        <style>
            .cls-1{fill:#707070}.cls-2{fill:#fff}
        </style>
    </defs>
    <g id="Group_7963" data-name="Group 7963" transform="translate(-57 -99)">
        <g id="Group_7953" data-name="Group 7953" transform="translate(-1829 -135)">
            <circle id="Ellipse_169" cx="11" cy="11" r="11" class="cls-1" data-name="Ellipse 169" transform="translate(1886 234)"/>
        </g>
        <path id="Path_2609" d="M1271.9 150.991l-2.7-2.7.364-.364-.364-.364-1.092 1.092-1.819-1.819 2.183-2.183a2.641 2.641 0 0 0 .883.156 2.471 2.471 0 0 0 1.871-.78 2.711 2.711 0 0 0 .572-2.963l-.156-.364-1.144 1.144h-.935v-.884l1.2-1.2-.364-.156a2.328 2.328 0 0 0-1.04-.208 2.471 2.471 0 0 0-1.871.78 2.667 2.667 0 0 0-.624 2.807l-2.183 2.183-3.067-3.067.364-.364-1.978-1.973-1.091 1.092 1.975 1.975.364-.364 3.067 3.067-2.183 2.183a2.641 2.641 0 0 0-.884-.156 2.471 2.471 0 0 0-1.871.78 2.711 2.711 0 0 0-.572 2.963l.156.364 1.2-1.2h.883v.936l-1.143 1.143.364.156a2.327 2.327 0 0 0 1.04.208 2.471 2.471 0 0 0 1.871-.78 2.666 2.666 0 0 0 .624-2.807l2.183-2.183 1.819 1.819-1.091 1.092.364.364.364-.364 2.7 2.7a1.217 1.217 0 0 0 .884.364 1.356 1.356 0 0 0 .883-.364 1.288 1.288 0 0 0-.006-1.761zm-12.266-10.083l.364-.364 1.248 1.247-.364.364zm3.586 8.472a2.15 2.15 0 0 1-.468 2.391 2.082 2.082 0 0 1-1.507.624 1.438 1.438 0 0 1-.468-.052l.728-.728v-1.663h-1.605l-.78.78a2.224 2.224 0 0 1 .572-2.027 2.082 2.082 0 0 1 1.507-.624 2.64 2.64 0 0 1 .884.156l.156.052 5.146-5.146-.052-.156a2.15 2.15 0 0 1 .468-2.391 2.082 2.082 0 0 1 1.507-.624 1.441 1.441 0 0 1 .468.052l-.78.78v1.611h1.663l.728-.728a2.265 2.265 0 0 1-.572 2.027 2.081 2.081 0 0 1-1.507.624 2.638 2.638 0 0 1-.883-.156l-.156-.052-5.146 5.146zm8.316 3.015a.667.667 0 0 1-.52.208.8.8 0 0 1-.52-.208l-2.7-2.7 1.092-1.092 2.7 2.7a.935.935 0 0 1-.048 1.091z" class="cls-2" data-name="Path 2609" transform="translate(-1197.891 -36.697)"/>
    </g>
</svg>
