<svg xmlns="http://www.w3.org/2000/svg" id="Group_75" width="33.813" height="33.944" data-name="Group 75" viewBox="0 0 33.813 33.944">
    <defs>
        <style>
            .cls-1{fill:#fff}
        </style>
    </defs>
    <path id="Path_220" d="M806.589 9v19.019H798.4v11.095c0 2.642 2.51 3.83 4.359 3.83h25.359a4.3 4.3 0 0 0 4.094-4.094V9zm-3.7 32.491c-.792 0-3.038-.4-3.038-2.51v-9.773h6.736v9.113c0 .925-1.189 3.038-3.038 3.038h-.66zm28.133-2.774a3.1 3.1 0 0 1-2.774 2.774h-21.791a4.949 4.949 0 0 0 1.453-3.038V10.321h22.982v28.4z" class="cls-1" data-name="Path 220" transform="translate(-798.4 -9)"/>
    <path id="Rectangle_59" d="M0 0h17.567v1.321H0z" class="cls-1" data-name="Rectangle 59" transform="translate(12.283 4.094)"/>
    <path id="Rectangle_60" d="M0 0h17.567v1.321H0z" class="cls-1" data-name="Rectangle 60" transform="translate(12.283 22.321)"/>
    <path id="Rectangle_61" d="M0 0h17.567v1.321H0z" class="cls-1" data-name="Rectangle 61" transform="translate(12.283 27.076)"/>
    <path id="Path_221" d="M825.266 15.7H807.7v10.17h17.567zm-1.321 8.717h-14.924v-7.4h14.925z" class="cls-1" data-name="Path 221" transform="translate(-795.417 -6.851)"/>
</svg>
