<svg xmlns="http://www.w3.org/2000/svg" width="26.436" height="35.026" viewBox="0 0 26.436 35.026">
  <defs>
    <style>
      .cls-1 {
        fill: #707070;
      }
    </style>
  </defs>
  <g id="Group_7643" data-name="Group 7643" transform="matrix(0.875, 0.485, -0.485, 0.875, -10311.914, -5486.779)">
    <path id="Op_component_1" data-name="Op component 1" class="cls-1" d="M243.138,1019.865v-2.633c0-1.908-2.008-3.159-3.95-3.159H234.45c-1.942,0-3.95,1.251-3.95,3.159v2.633c0,.63.635,1.053,1.58,1.053h9.479C242.5,1020.919,243.138,1020.5,243.138,1019.865Zm-1.053-.094a1.345,1.345,0,0,1-.527.094H232.08a1.345,1.345,0,0,1-.527-.094v-2.539c0-1.232,1.5-2.106,2.9-2.106h4.738c1.393,0,2.9.874,2.9,2.106Z" transform="translate(11462 -1222)"/>
    <path id="Op_component_2" data-name="Op component 2" class="cls-1" d="M245.553,1045.344V1030.6a.527.527,0,0,0-1.053,0v14.745a.527.527,0,1,0,1.053,0Z" transform="translate(11455.372 -1229.574)"/>
    <path id="Op_component_3" data-name="Op component 3" class="cls-1" d="M239.553,1045.344V1030.6a.527.527,0,0,0-1.053,0v14.745a.527.527,0,1,0,1.053,0Z" transform="translate(11458.213 -1229.574)"/>
    <path id="Op_component_4" data-name="Op component 4" class="cls-1" d="M233.027,1030.073a.526.526,0,0,0-.527.526v16.561l3.073,6.744.045.08a3.477,3.477,0,0,0,.723.829,1.459,1.459,0,0,0,.164.078,2.185,2.185,0,0,0,1.261.38,2.535,2.535,0,0,0,2.381-1.945l2.885-6.535V1030.6a.527.527,0,0,0-1.053,0v15.972l-2.543,5.771a.514.514,0,0,0-.138.219c-.045.153-.092.288-.141.414l-.09.2a4.565,4.565,0,0,1-.661.851,1.541,1.541,0,0,1-2.178-1.407.514.514,0,0,0-.193-.247l-2.481-5.445V1030.6A.526.526,0,0,0,233.027,1030.073Z" transform="translate(11461.053 -1229.574)"/>
    <path id="Op_component_1-2" data-name="Op component 1" class="cls-1" d="M243.138,1019.865v-2.633c0-1.908-2.008-3.159-3.95-3.159H234.45c-1.942,0-3.95,1.251-3.95,3.159v2.633c0,.63.635,1.053,1.58,1.053h9.479C242.5,1020.919,243.138,1020.5,243.138,1019.865Zm-1.053-.094a1.345,1.345,0,0,1-.527.094H232.08a1.345,1.345,0,0,1-.527-.094v-2.539c0-1.232,1.5-2.106,2.9-2.106h4.738c1.393,0,2.9.874,2.9,2.106Z" transform="translate(11462 -1222)"/>
    <path id="Op_component_2-2" data-name="Op component 2" class="cls-1" d="M245.553,1045.344V1030.6a.527.527,0,0,0-1.053,0v14.745a.527.527,0,1,0,1.053,0Z" transform="translate(11455.372 -1229.574)"/>
    <path id="Op_component_3-2" data-name="Op component 3" class="cls-1" d="M239.553,1045.344V1030.6a.527.527,0,0,0-1.053,0v14.745a.527.527,0,1,0,1.053,0Z" transform="translate(11458.213 -1229.574)"/>
    <path id="Op_component_4-2" data-name="Op component 4" class="cls-1" d="M233.027,1030.073a.526.526,0,0,0-.527.526v16.561l3.073,6.744.045.08a3.477,3.477,0,0,0,.723.829,1.459,1.459,0,0,0,.164.078,2.185,2.185,0,0,0,1.261.38,2.535,2.535,0,0,0,2.381-1.945l2.885-6.535V1030.6a.527.527,0,0,0-1.053,0v15.972l-2.543,5.771a.514.514,0,0,0-.138.219c-.045.153-.092.288-.141.414l-.09.2a4.565,4.565,0,0,1-.661.851,1.541,1.541,0,0,1-2.178-1.407.514.514,0,0,0-.193-.247l-2.481-5.445V1030.6A.526.526,0,0,0,233.027,1030.073Z" transform="translate(11461.053 -1229.574)"/>
  </g>
</svg>
