<svg xmlns="http://www.w3.org/2000/svg" width="38" height="38" viewBox="0 0 38 38">
  <defs>
    <style>
      .cls-1 {
        fill: #fff;
        stroke: #336fc5;
      }

      .cls-2 {
        fill: #336fc5;
      }

      .cls-3 {
        stroke: none;
      }

      .cls-4 {
        fill: none;
      }
    </style>
  </defs>
  <g id="Group_7926" data-name="Group 7926" transform="translate(-1389 -824)">
    <g id="Group_7842" data-name="Group 7842" transform="translate(488 95)">
      <g id="Ellipse_49" data-name="Ellipse 49" class="cls-1" transform="translate(901 729)">
        <circle class="cls-3" cx="19" cy="19" r="19"/>
        <circle class="cls-4" cx="19" cy="19" r="18.5"/>
      </g>
      <g id="Group_186" data-name="Group 186" transform="translate(910 738)">
        <path id="Path_580" data-name="Path 580" class="cls-2" d="M1973.938,108a9.023,9.023,0,0,0-9.038,9.038,8.858,8.858,0,0,0,2.26,5.971l-2.1,2.582.646.484,2.017-2.5a9.169,9.169,0,0,0,12.588,0l2.017,2.5.646-.484-2.1-2.582a8.985,8.985,0,0,0,2.179-5.891A9.161,9.161,0,0,0,1973.938,108Zm0,17.349a8.231,8.231,0,1,1,8.231-8.231A8.266,8.266,0,0,1,1973.938,125.349Z" transform="translate(-1963.689 -105.579)"/>
        <path id="Path_581" data-name="Path 581" class="cls-2" d="M1969.936,105h-2.421a4.133,4.133,0,0,0-4.115,4.115v2.5h1.21l5.406-5.407V105Zm-.807.807-4.922,4.922h0v-1.695a3.272,3.272,0,0,1,3.309-3.308l1.614.081Z" transform="translate(-1963.4 -105)"/>
        <path id="Path_582" data-name="Path 582" class="cls-2" d="M1983.221,105H1980.8v1.21l5.406,5.407h1.211v-2.5A4.257,4.257,0,0,0,1983.221,105Zm3.309,5.729h0l-4.922-4.922h1.614a3.272,3.272,0,0,1,3.309,3.308Z" transform="translate(-1966.759 -105)"/>
        <path id="Path_583" data-name="Path 583" class="cls-2" d="M1974.519,117.717H1970v.807h5.326V111.1h-.807Z" transform="translate(-1964.674 -106.178)"/>
      </g>
    </g>
  </g>
</svg>
