<svg id="Group_7646" data-name="Group 7646" xmlns="http://www.w3.org/2000/svg" width="21.656" height="23.845" viewBox="0 0 21.656 23.845">
  <defs>
    <style>
      .cls-1 {
        fill: #336fc5;
      }
    </style>
  </defs>
  <path id="Path_158" data-name="Path 158" class="cls-1" d="M616.859,76.3c-1.267-.576-4.262-1.5-5.99-2.073-.115,0-.23,0-.23-.691a3.267,3.267,0,0,1,.461-1.5,8.935,8.935,0,0,0,.576-2.073,4.956,4.956,0,0,0,.922-2.189,3.092,3.092,0,0,0,0-1.843v-.115a13.013,13.013,0,0,1,.23-2.534,4.3,4.3,0,0,0-1.037-3.341,4.759,4.759,0,0,0-3.8-1.843h-1.152a4.76,4.76,0,0,0-3.8,1.843A4.973,4.973,0,0,0,602,63.284a13.016,13.016,0,0,1,.23,2.534v.115a3.093,3.093,0,0,0,0,1.843,4.354,4.354,0,0,0,.921,2.189,8.938,8.938,0,0,0,.576,2.073,4.513,4.513,0,0,1,.23,1.5c0,.691,0,.691-.115.691C602,74.8,599,75.84,597.852,76.3a1.672,1.672,0,0,0-1.152,1.728v2.88c0,.461.23,1.037,1.152,1.037H617.2a1.131,1.131,0,0,0,1.152-1.037v-2.88A2.407,2.407,0,0,0,616.859,76.3Zm.23,4.492H597.852V78.028c0-.346.115-.461.461-.691,1.037-.461,4.032-1.5,5.875-2.073a1.551,1.551,0,0,0,.922-1.728,5.179,5.179,0,0,0-.346-2.073,3.817,3.817,0,0,1-.461-1.728v-.346l-.23-.23a3.474,3.474,0,0,1-.691-1.613c-.115-.806-.115-1.037,0-1.152,0-.115.115-.115.115-.23h0a9.438,9.438,0,0,0-.23-2.995,3.087,3.087,0,0,1,.806-2.419,4.055,4.055,0,0,1,2.995-1.382H608.1a4.326,4.326,0,0,1,2.995,1.382,4.443,4.443,0,0,1,.806,2.419,14.722,14.722,0,0,0-.23,2.995h0c0,.115,0,.115.115.23h0c.115.115.115.346,0,1.152a3.476,3.476,0,0,1-.691,1.613l-.23.23v.346a17.776,17.776,0,0,1-.461,1.728,5.524,5.524,0,0,0-.576,1.958,1.644,1.644,0,0,0,1.037,1.843c1.728.576,4.723,1.5,5.875,2.073a.928.928,0,0,1,.576.691Z" transform="translate(-596.7 -58.1)"/>
</svg>
