<svg id="Group_159" data-name="Group 159" xmlns="http://www.w3.org/2000/svg" width="32.653" height="34.162" viewBox="0 0 32.653 34.162">
  <defs>
    <style>
      .cls-1 {
        fill: #336fc5;
      }
    </style>
  </defs>
  <path id="Path_484" data-name="Path 484" class="cls-1" d="M1801.134,101.567a3.567,3.567,0,0,0-7.134,0,3.415,3.415,0,0,0,2.881,3.43v24.284h1.372V105A3.523,3.523,0,0,0,1801.134,101.567Zm-3.567,2.058a2.2,2.2,0,1,1,2.2-2.2A2.167,2.167,0,0,1,1797.567,103.625Z" transform="translate(-1768.481 -98)"/>
  <path id="Path_485" data-name="Path 485" class="cls-1" d="M1779.653,124.384V100.1h-1.372v24.284a3.523,3.523,0,0,0-2.881,3.43,3.567,3.567,0,1,0,7.134,0A3.542,3.542,0,0,0,1779.653,124.384Zm-.823,5.625a2.2,2.2,0,1,1,2.2-2.2A2.167,2.167,0,0,1,1778.83,130.009Z" transform="translate(-1775.4 -97.219)"/>
  <path id="Path_486" data-name="Path 486" class="cls-1" d="M1788.953,110.8V100.1h-1.372v10.7a3.523,3.523,0,0,0-2.881,3.43,3.415,3.415,0,0,0,2.881,3.43v10.7h1.372V117.8a3.523,3.523,0,0,0,2.881-3.43A3.561,3.561,0,0,0,1788.953,110.8Zm-.686,5.625a2.2,2.2,0,1,1,2.2-2.2A2.256,2.256,0,0,1,1788.267,116.426Z" transform="translate(-1771.941 -97.219)"/>
</svg>
