<svg xmlns="http://www.w3.org/2000/svg" width="46.016" height="46.016" viewBox="0 0 46.016 46.016">
  <defs>
    <style>
      .cls-1 {
        fill: #336fc5;
      }

      .cls-2 {
        fill: #fff;
      }
    </style>
  </defs>
  <g id="Group_7974" data-name="Group 7974" transform="translate(-210.992 -126.992)">
    <rect id="volvo" class="cls-1" width="46.016" height="46.016" rx="23.008" transform="translate(210.992 126.992)"/>
    <path id="Path_2612" data-name="Path 2612" class="cls-2" d="M1935.214,59.5a17.314,17.314,0,1,0,17.315,17.314A17.484,17.484,0,0,0,1935.214,59.5Zm0,1.408a15.74,15.74,0,0,1,15.766,15.766,16.237,16.237,0,0,1-3.66,10.135c-1.548-.7-5.349-1.971-7.6-2.675-.141,0-.281-.141-.281-.845a4.583,4.583,0,0,1,.563-1.971,6.731,6.731,0,0,0,.7-2.675,7.021,7.021,0,0,0,1.126-2.675,3.674,3.674,0,0,0,0-2.252v-.141a17.129,17.129,0,0,1,.281-3.238,5.693,5.693,0,0,0-1.267-4.223,6.725,6.725,0,0,0-4.927-2.393h-1.408a5.941,5.941,0,0,0-4.786,2.393,5.693,5.693,0,0,0-1.267,4.223,17.114,17.114,0,0,1,.281,3.238v.141a3.779,3.779,0,0,0,0,2.252,5.3,5.3,0,0,0,1.126,2.675,12.268,12.268,0,0,0,.7,2.675,3.891,3.891,0,0,1,.281,1.971c0,.845,0,.845-.281.845-2.393.7-6.194,2.112-7.6,2.675a15.585,15.585,0,0,1-3.8-10.135A16.169,16.169,0,0,1,1935.214,60.908Zm-11.12,27.168a58.48,58.48,0,0,1,7.039-2.393c1.267-.422,1.267-1.408,1.267-2.252a5.644,5.644,0,0,0-.422-2.534,9.67,9.67,0,0,1-.7-2.393c0-.141-.141-.422-.281-.422a5.281,5.281,0,0,1-.845-2.112c-.14-.985-.14-1.267,0-1.548,0-.141.141-.141.141-.282a12.669,12.669,0,0,0-.281-3.8,3.923,3.923,0,0,1,.985-3.1,4.886,4.886,0,0,1,3.66-1.83h1.407a4.723,4.723,0,0,1,4.786,4.927,20.047,20.047,0,0,0-.281,3.8c0,.141,0,.141.141.282.141.282.141.422,0,1.548a5.282,5.282,0,0,1-.844,2.112c-.141.141-.281.282-.281.422a5.981,5.981,0,0,1-.7,2.393,6.7,6.7,0,0,0-.7,2.534c0,.845,0,1.83,1.267,2.252,1.971.563,5.208,1.689,7.038,2.393a15.748,15.748,0,0,1-11.121,4.645A16.439,16.439,0,0,1,1924.094,88.076Z" transform="translate(-1701.396 73.76)"/>
  </g>
</svg>
