<svg xmlns="http://www.w3.org/2000/svg" width="72.158" height="25.255" viewBox="0 0 72.158 25.255">
  <defs>
    <style>
      .cls-1 {
        fill: #336fc5;
      }
    </style>
  </defs>
  <g id="Group_7594" data-name="Group 7594" transform="translate(-803.151 -452.982)">
    <g id="Group_7592" data-name="Group 7592" transform="translate(803.151 452.982)">
      <path id="Path_2260" data-name="Path 2260" class="cls-1" d="M874.886,459.451c1.383-.635-4.8.292-12.679-3.211s-12.762-3.253-19.831-3.253-11.323,2.815-15.139,4.942-.063,1.439-12.074,2.815-12.012,5.881-12.012,5.881,3.121-4.02,16.2-4.02S867.235,462.962,874.886,459.451Zm-47.4.491c1.3-1.081,6.532-5.181,11.3-5.579,5.495-.459,12.793-.667,17.089,1.126s4.9,3.91,4.9,3.91l-33.194.794A.142.142,0,0,1,827.481,459.941Z" transform="translate(-803.151 -452.982)"/>
      <path id="Path_2261" data-name="Path 2261" class="cls-1" d="M825.339,487.363c-12.261-1.069-17.6,3.008-17.6,3.008s7.2-3.412,17.829-1.489,24.151,1.414,31.046.759a68.991,68.991,0,0,0,22.216-5.693C851.548,489.894,837.6,488.431,825.339,487.363Z" transform="translate(-806.666 -476.729)"/>
      <path id="Path_2262" data-name="Path 2262" class="cls-1" d="M913.517,478.54h2.261a.583.583,0,0,0,.585-.468.563.563,0,0,0-.555-.657h-1.35a1.017,1.017,0,0,0-.741.32l-.375.4A.24.24,0,0,0,913.517,478.54Z" transform="translate(-887.602 -471.719)"/>
      <path id="Path_2263" data-name="Path 2263" class="cls-1" d="M1060.666,488.946a45.016,45.016,0,0,1-14.342,4.162C1057.854,493.052,1060.666,488.946,1060.666,488.946Z" transform="translate(-989.632 -480.562)"/>
    </g>
    <path id="Path_2264" data-name="Path 2264" class="cls-1" d="M821.43,526.185h-1.7l-2.549-8.547h-.024v8.547h-2.063V515.7h3.835l1.82,6.283,1.944-6.283h3.835v10.486h-2.454v-8.547h-.048Z" transform="translate(-9.159 -48.095)"/>
    <path id="Path_2265" data-name="Path 2265" class="cls-1" d="M875.623,534.646a5.3,5.3,0,0,1-.1-1.215,3.449,3.449,0,0,1-1.067,1.04,2.788,2.788,0,0,1-1.4.323,2.678,2.678,0,0,1-1.766-.569,1.982,1.982,0,0,1-.688-1.618,2.361,2.361,0,0,1,1.749-2.33,15.922,15.922,0,0,1,3.058-.486v-.172a1.854,1.854,0,0,0-.2-1.02,1.074,1.074,0,0,0-.925-.385,1.5,1.5,0,0,0-.946.3,1,1,0,0,0-.388.839l-2.134-.2a2.317,2.317,0,0,1,1.218-1.864,5.208,5.208,0,0,1,2.492-.561,3.71,3.71,0,0,1,2.454.7,1.586,1.586,0,0,1,.6.88,6.85,6.85,0,0,1,.13,1.55v3.616a3.921,3.921,0,0,0,.148,1.168Zm-.219-3.717a6.639,6.639,0,0,0-1.713.4,1.122,1.122,0,0,0-.451,1.773.957.957,0,0,0,.729.281,1.3,1.3,0,0,0,1.144-.658,2.948,2.948,0,0,0,.29-1.476Z" transform="translate(-51.721 -56.557)"/>
    <path id="Path_2266" data-name="Path 2266" class="cls-1" d="M909.686,529.2a1.362,1.362,0,0,0-1.506-1.043q-1.162,0-1.162.682,0,.462.788.616t1.7.305a3.208,3.208,0,0,1,1.541.67,2.094,2.094,0,0,1,.631,1.71,2.393,2.393,0,0,1-1.043,2.016,4.189,4.189,0,0,1-2.424.634,4.648,4.648,0,0,1-2.3-.534,2.571,2.571,0,0,1-1.248-1.749l1.938-.3q.225,1.049,1.725,1.049a2.513,2.513,0,0,0,.913-.172.586.586,0,0,0,.445-.557q0-.557-.871-.658a12.707,12.707,0,0,1-2.306-.463,2.256,2.256,0,0,1-1.111-.8,2.1,2.1,0,0,1-.418-1.286,2.185,2.185,0,0,1,.96-1.965,4.215,4.215,0,0,1,2.365-.631,2.954,2.954,0,0,1,3.059,2.016Z" transform="translate(-77.848 -56.557)"/>
    <path id="Path_2267" data-name="Path 2267" class="cls-1" d="M946.911,526.185h-2.229v-4.2a4.887,4.887,0,0,0-.163-1.434.7.7,0,0,0-.738-.5,1.336,1.336,0,0,0-.634.16.969.969,0,0,0-.433.421,3.086,3.086,0,0,0-.219,1.357v4.2H940.26V515.7h2.235v3.788h.047a1.712,1.712,0,0,1,.78-.889,2.433,2.433,0,0,1,1.236-.326,2.339,2.339,0,0,1,1.944.824,4.179,4.179,0,0,1,.409,2.164Z" transform="translate(-105.144 -48.095)"/>
    <path id="Path_2268" data-name="Path 2268" class="cls-1" d="M978.115,517.221H975.88v-2.158h2.235Zm0,8.476H975.88v-7.771h2.235Z" transform="translate(-132.46 -47.608)"/>
    <path id="Path_2269" data-name="Path 2269" class="cls-1" d="M994.693,526.875v1.31h.03a2.6,2.6,0,0,1,.871-1.1,2.394,2.394,0,0,1,1.357-.35,2.226,2.226,0,0,1,1.921.848,4.035,4.035,0,0,1,.439,2.259v4.807h-2.258v-4.179a4.37,4.37,0,0,0-.187-1.482.793.793,0,0,0-.833-.48.993.993,0,0,0-.948.581,3,3,0,0,0-.267,1.381v4.179h-2.258v-7.771Z" transform="translate(-145.25 -56.557)"/>
    <path id="Path_2270" data-name="Path 2270" class="cls-1" d="M1031.749,529.839a1.642,1.642,0,0,0-.3-1,1.009,1.009,0,0,0-.865-.412q-1.4,0-1.4,2.235a4.891,4.891,0,0,0,.231,1.654,1.015,1.015,0,0,0,1.079.628,1.1,1.1,0,0,0,.883-.376,1.705,1.705,0,0,0,.38-.957l2.163.119a3.221,3.221,0,0,1-1.12,2.24,3.633,3.633,0,0,1-2.424.824,3.52,3.52,0,0,1-2.739-1.1,4.082,4.082,0,0,1-1-2.86,4.225,4.225,0,0,1,1.037-2.967,4.016,4.016,0,0,1,4.484-.765,3.073,3.073,0,0,1,1.215,1.049,3.341,3.341,0,0,1,.548,1.568Z" transform="translate(-171.377 -56.557)"/>
    <path id="Path_2271" data-name="Path 2271" class="cls-1" d="M1070.246,526.185h-2.229v-4.2a4.888,4.888,0,0,0-.163-1.434.7.7,0,0,0-.738-.5,1.335,1.335,0,0,0-.634.16.971.971,0,0,0-.433.421,3.087,3.087,0,0,0-.219,1.357v4.2H1063.6V515.7h2.235v3.788h.047a1.709,1.709,0,0,1,.78-.889,2.431,2.431,0,0,1,1.235-.326,2.339,2.339,0,0,1,1.944.824,4.18,4.18,0,0,1,.409,2.164Z" transform="translate(-199.726 -48.095)"/>
    <path id="Path_2272" data-name="Path 2272" class="cls-1" d="M1101.449,517.221h-2.234v-2.158h2.234Zm0,8.476h-2.234v-7.771h2.234Z" transform="translate(-227.041 -47.608)"/>
  </g>
</svg>
