<svg xmlns="http://www.w3.org/2000/svg" width="38" height="38" viewBox="0 0 38 38">
  <defs>
    <style>
      .cls-1 {
        fill: #fff;
        stroke: #336fc5;
      }

      .cls-2 {
        fill: #336fc5;
      }

      .cls-3 {
        stroke: none;
      }

      .cls-4 {
        fill: none;
      }
    </style>
  </defs>
  <g id="Group_7924" data-name="Group 7924" transform="translate(-1389 -694)">
    <g id="Group_7838" data-name="Group 7838" transform="translate(-76 0)">
      <g id="Ellipse_182" data-name="Ellipse 182" class="cls-1" transform="translate(1465 694)">
        <circle class="cls-3" cx="19" cy="19" r="19"/>
        <circle class="cls-4" cx="19" cy="19" r="18.5"/>
      </g>
      <g id="Group_7837" data-name="Group 7837" transform="translate(1472.719 704)">
        <path id="Path_3" data-name="Path 3" class="cls-2" d="M54.086,39.3a1.586,1.586,0,1,0,1.586,1.586A1.58,1.58,0,0,0,54.086,39.3Zm0,2.468a.793.793,0,1,1,.793-.793A.852.852,0,0,1,54.086,41.768Z" transform="translate(-49.68 -31.192)"/>
        <path id="Path_4" data-name="Path 4" class="cls-2" d="M68.886,39.3a1.586,1.586,0,1,0,1.586,1.586A1.58,1.58,0,0,0,68.886,39.3Zm0,2.468a.793.793,0,1,1,.793-.793A.852.852,0,0,1,68.886,41.768Z" transform="translate(-51.436 -31.192)"/>
        <path id="Path_5" data-name="Path 5" class="cls-2" d="M68.425,34.947l-.705-3.261a2.046,2.046,0,0,0-2.2-1.586H54.941a2.083,2.083,0,0,0-2.115,1.675l-.705,3.261H49.3v.793h2.644A2.5,2.5,0,0,0,49.653,38.3v5.641h1.234v1.234a2.027,2.027,0,0,0,4.054,0V43.937H65.517v1.234a2.027,2.027,0,0,0,4.054,0V43.937H70.8V38.3a2.55,2.55,0,0,0-2.2-2.468h2.644v-.793h-2.82Zm-14.807-3c.264-.705.617-1.058,1.322-1.058H65.517a1.3,1.3,0,0,1,1.41.969l.793,3.878H52.737Zm.529,13.132a1.234,1.234,0,0,1-2.468,0V43.849h2.468v1.234Zm14.63,0a1.234,1.234,0,0,1-2.468,0V43.849h2.468Zm1.234-6.875v4.847H50.446V38.208a1.58,1.58,0,0,1,1.586-1.586h16.3A1.657,1.657,0,0,1,70.012,38.208Z" transform="translate(-49.3 -30.1)"/>
      </g>
    </g>
  </g>
</svg>
