<svg xmlns="http://www.w3.org/2000/svg" width="54.819" height="54.391" viewBox="0 0 54.819 54.391">
  <defs>
    <style>
      .cls-1 {
        fill: #336fc5;
      }
    </style>
  </defs>
  <g id="Group_186" data-name="Group 186" transform="translate(0)">
    <path id="Path_580" data-name="Path 580" class="cls-1" d="M1988.883,108a23.944,23.944,0,0,0-23.983,23.983,23.506,23.506,0,0,0,6,15.846l-5.568,6.852,1.713,1.285,5.354-6.638a24.332,24.332,0,0,0,33.405,0l5.354,6.638,1.713-1.285-5.568-6.852a23.844,23.844,0,0,0,5.782-15.632A24.311,24.311,0,0,0,1988.883,108Zm0,46.039a21.842,21.842,0,1,1,21.842-21.842A21.934,21.934,0,0,1,1988.883,154.039Z" transform="translate(-1961.688 -101.576)"/>
    <path id="Path_581" data-name="Path 581" class="cls-1" d="M1980.745,105h-6.424a10.967,10.967,0,0,0-10.921,10.921v6.638h3.212l14.347-14.347V105Zm-2.141,2.141L1965.541,120.2h0v-4.5a8.684,8.684,0,0,1,8.78-8.78l4.283.214Z" transform="translate(-1963.4 -105)"/>
    <path id="Path_582" data-name="Path 582" class="cls-1" d="M1987.224,105H1980.8v3.212l14.347,14.347h3.212v-6.638A11.3,11.3,0,0,0,1987.224,105Zm8.78,15.2h0l-13.062-13.062h4.283a8.684,8.684,0,0,1,8.78,8.78Z" transform="translate(-1943.54 -105)"/>
    <path id="Path_583" data-name="Path 583" class="cls-1" d="M1981.992,128.659H1970V130.8h14.133V111.1h-2.141Z" transform="translate(-1955.867 -98.038)"/>
  </g>
</svg>
