<svg xmlns="http://www.w3.org/2000/svg" width="32.932" height="33.083" viewBox="0 0 32.932 33.083">
  <path id="Path_2295" data-name="Path 2295" d="M1290.682,167.345l-6.516-6.516.877-.877-.877-.877-2.632,2.632-4.386-4.386,5.263-5.263a6.366,6.366,0,0,0,2.13.376,5.957,5.957,0,0,0,4.512-1.88,6.536,6.536,0,0,0,1.379-7.143l-.376-.877-2.758,2.757h-2.255v-2.13l2.882-2.882-.877-.376a5.612,5.612,0,0,0-2.507-.5,5.957,5.957,0,0,0-4.511,1.88,6.429,6.429,0,0,0-1.5,6.767l-5.263,5.263-7.394-7.394.877-.877-4.762-4.762-2.632,2.632,4.762,4.762.877-.877,7.394,7.394-5.263,5.263a6.368,6.368,0,0,0-2.13-.376,5.958,5.958,0,0,0-4.512,1.88,6.536,6.536,0,0,0-1.378,7.143l.376.877,2.882-2.882h2.13v2.256l-2.757,2.757.877.376a5.609,5.609,0,0,0,2.506.5,5.957,5.957,0,0,0,4.511-1.88,6.429,6.429,0,0,0,1.5-6.767l5.262-5.263,4.386,4.386-2.632,2.632.877.877.877-.877,6.517,6.516a2.935,2.935,0,0,0,2.13.877,3.269,3.269,0,0,0,2.13-.877A3.1,3.1,0,0,0,1290.682,167.345Zm-29.574-24.311.877-.877,3.008,3.008-.877.877Zm8.646,20.426a5.183,5.183,0,0,1-1.127,5.764,5.021,5.021,0,0,1-3.634,1.5,3.467,3.467,0,0,1-1.128-.125l1.754-1.754v-4.01h-3.885l-1.879,1.88a5.361,5.361,0,0,1,1.378-4.887,5.021,5.021,0,0,1,3.634-1.5,6.364,6.364,0,0,1,2.13.376l.376.125,12.406-12.406-.125-.376a5.183,5.183,0,0,1,1.128-5.765,5.019,5.019,0,0,1,3.634-1.5,3.473,3.473,0,0,1,1.129.125l-1.88,1.88v3.885h4.01l1.755-1.754a5.46,5.46,0,0,1-1.379,4.887,5.017,5.017,0,0,1-3.634,1.5,6.362,6.362,0,0,1-2.13-.376l-.376-.125L1269.5,163.21Zm20.051,7.268a1.607,1.607,0,0,1-1.253.5,1.918,1.918,0,0,1-1.254-.5l-6.516-6.516,2.632-2.632,6.516,6.516A2.254,2.254,0,0,1,1289.8,170.729Z" transform="translate(-1258.596 -139.4)"/>
</svg>
